<svg xmlns="http://www.w3.org/2000/svg" xmlns:xlink="http://www.w3.org/1999/xlink" style="margin:auto;background:#16c5ff;display:block;z-index:1;position:relative" width="1084" height="322" preserveAspectRatio="xMidYMid" viewBox="0 0 1084 322">
<defs>
  <pattern id="pid-0.3773903589785743" x="0" y="0" width="204.8" height="204.8" patternUnits="userSpaceOnUse">
    <g transform="scale(0.8)"><path d="M 1 1 L 31 1 L 31 31 L 1 31 Z" fill="#bffff7">
  <animate attributeName="fill" begin="-0.5636901877158118s" values="#bffff7;#41fff5;#00c8ff;#bffff7" keyTimes="0;0.3333333333333333;0.6666666666666666;1" dur="5s" repeatCount="indefinite"></animate>
</path><path d="M 1 33 L 31 33 L 31 63 L 1 63 Z" fill="#bffff7">
  <animate attributeName="fill" begin="-3.042729439997276s" values="#bffff7;#41fff5;#00c8ff;#bffff7" keyTimes="0;0.3333333333333333;0.6666666666666666;1" dur="5s" repeatCount="indefinite"></animate>
</path><path d="M 1 65 L 31 65 L 31 95 L 1 95 Z" fill="#bffff7">
  <animate attributeName="fill" begin="-4.156570629607353s" values="#bffff7;#41fff5;#00c8ff;#bffff7" keyTimes="0;0.3333333333333333;0.6666666666666666;1" dur="5s" repeatCount="indefinite"></animate>
</path><path d="M 1 97 L 31 97 L 31 127 L 1 127 Z" fill="#bffff7">
  <animate attributeName="fill" begin="-1.526851656856778s" values="#bffff7;#41fff5;#00c8ff;#bffff7" keyTimes="0;0.3333333333333333;0.6666666666666666;1" dur="5s" repeatCount="indefinite"></animate>
</path><path d="M 1 129 L 31 129 L 31 159 L 1 159 Z" fill="#bffff7">
  <animate attributeName="fill" begin="-1.6541593109732955s" values="#bffff7;#41fff5;#00c8ff;#bffff7" keyTimes="0;0.3333333333333333;0.6666666666666666;1" dur="5s" repeatCount="indefinite"></animate>
</path><path d="M 1 161 L 31 161 L 31 191 L 1 191 Z" fill="#bffff7">
  <animate attributeName="fill" begin="-3.8113843503491096s" values="#bffff7;#41fff5;#00c8ff;#bffff7" keyTimes="0;0.3333333333333333;0.6666666666666666;1" dur="5s" repeatCount="indefinite"></animate>
</path><path d="M 1 193 L 31 193 L 31 223 L 1 223 Z" fill="#bffff7">
  <animate attributeName="fill" begin="-2.050078509814318s" values="#bffff7;#41fff5;#00c8ff;#bffff7" keyTimes="0;0.3333333333333333;0.6666666666666666;1" dur="5s" repeatCount="indefinite"></animate>
</path><path d="M 1 225 L 31 225 L 31 255 L 1 255 Z" fill="#bffff7">
  <animate attributeName="fill" begin="-2.8912134464710615s" values="#bffff7;#41fff5;#00c8ff;#bffff7" keyTimes="0;0.3333333333333333;0.6666666666666666;1" dur="5s" repeatCount="indefinite"></animate>
</path><path d="M 33 1 L 63 1 L 63 31 L 33 31 Z" fill="#bffff7">
  <animate attributeName="fill" begin="-0.5835955614774979s" values="#bffff7;#41fff5;#00c8ff;#bffff7" keyTimes="0;0.3333333333333333;0.6666666666666666;1" dur="5s" repeatCount="indefinite"></animate>
</path><path d="M 33 33 L 63 33 L 63 63 L 33 63 Z" fill="#bffff7">
  <animate attributeName="fill" begin="-0.847621342430146s" values="#bffff7;#41fff5;#00c8ff;#bffff7" keyTimes="0;0.3333333333333333;0.6666666666666666;1" dur="5s" repeatCount="indefinite"></animate>
</path><path d="M 33 65 L 63 65 L 63 95 L 33 95 Z" fill="#bffff7">
  <animate attributeName="fill" begin="-1.1256528253448939s" values="#bffff7;#41fff5;#00c8ff;#bffff7" keyTimes="0;0.3333333333333333;0.6666666666666666;1" dur="5s" repeatCount="indefinite"></animate>
</path><path d="M 33 97 L 63 97 L 63 127 L 33 127 Z" fill="#bffff7">
  <animate attributeName="fill" begin="-3.740337298427555s" values="#bffff7;#41fff5;#00c8ff;#bffff7" keyTimes="0;0.3333333333333333;0.6666666666666666;1" dur="5s" repeatCount="indefinite"></animate>
</path><path d="M 33 129 L 63 129 L 63 159 L 33 159 Z" fill="#bffff7">
  <animate attributeName="fill" begin="-0.7647899562603022s" values="#bffff7;#41fff5;#00c8ff;#bffff7" keyTimes="0;0.3333333333333333;0.6666666666666666;1" dur="5s" repeatCount="indefinite"></animate>
</path><path d="M 33 161 L 63 161 L 63 191 L 33 191 Z" fill="#bffff7">
  <animate attributeName="fill" begin="-1.1616490125073753s" values="#bffff7;#41fff5;#00c8ff;#bffff7" keyTimes="0;0.3333333333333333;0.6666666666666666;1" dur="5s" repeatCount="indefinite"></animate>
</path><path d="M 33 193 L 63 193 L 63 223 L 33 223 Z" fill="#bffff7">
  <animate attributeName="fill" begin="-0.3554052449535383s" values="#bffff7;#41fff5;#00c8ff;#bffff7" keyTimes="0;0.3333333333333333;0.6666666666666666;1" dur="5s" repeatCount="indefinite"></animate>
</path><path d="M 33 225 L 63 225 L 63 255 L 33 255 Z" fill="#bffff7">
  <animate attributeName="fill" begin="-4.640335302960367s" values="#bffff7;#41fff5;#00c8ff;#bffff7" keyTimes="0;0.3333333333333333;0.6666666666666666;1" dur="5s" repeatCount="indefinite"></animate>
</path><path d="M 65 1 L 95 1 L 95 31 L 65 31 Z" fill="#bffff7">
  <animate attributeName="fill" begin="-2.5531855158527783s" values="#bffff7;#41fff5;#00c8ff;#bffff7" keyTimes="0;0.3333333333333333;0.6666666666666666;1" dur="5s" repeatCount="indefinite"></animate>
</path><path d="M 65 33 L 95 33 L 95 63 L 65 63 Z" fill="#bffff7">
  <animate attributeName="fill" begin="-0.38173346932645624s" values="#bffff7;#41fff5;#00c8ff;#bffff7" keyTimes="0;0.3333333333333333;0.6666666666666666;1" dur="5s" repeatCount="indefinite"></animate>
</path><path d="M 65 65 L 95 65 L 95 95 L 65 95 Z" fill="#bffff7">
  <animate attributeName="fill" begin="-0.5480417917480729s" values="#bffff7;#41fff5;#00c8ff;#bffff7" keyTimes="0;0.3333333333333333;0.6666666666666666;1" dur="5s" repeatCount="indefinite"></animate>
</path><path d="M 65 97 L 95 97 L 95 127 L 65 127 Z" fill="#bffff7">
  <animate attributeName="fill" begin="-3.51594014908277s" values="#bffff7;#41fff5;#00c8ff;#bffff7" keyTimes="0;0.3333333333333333;0.6666666666666666;1" dur="5s" repeatCount="indefinite"></animate>
</path><path d="M 65 129 L 95 129 L 95 159 L 65 159 Z" fill="#bffff7">
  <animate attributeName="fill" begin="-1.4838295521977152s" values="#bffff7;#41fff5;#00c8ff;#bffff7" keyTimes="0;0.3333333333333333;0.6666666666666666;1" dur="5s" repeatCount="indefinite"></animate>
</path><path d="M 65 161 L 95 161 L 95 191 L 65 191 Z" fill="#bffff7">
  <animate attributeName="fill" begin="-0.9271209327148344s" values="#bffff7;#41fff5;#00c8ff;#bffff7" keyTimes="0;0.3333333333333333;0.6666666666666666;1" dur="5s" repeatCount="indefinite"></animate>
</path><path d="M 65 193 L 95 193 L 95 223 L 65 223 Z" fill="#bffff7">
  <animate attributeName="fill" begin="-3.7512395638544183s" values="#bffff7;#41fff5;#00c8ff;#bffff7" keyTimes="0;0.3333333333333333;0.6666666666666666;1" dur="5s" repeatCount="indefinite"></animate>
</path><path d="M 65 225 L 95 225 L 95 255 L 65 255 Z" fill="#bffff7">
  <animate attributeName="fill" begin="-0.6084024539614508s" values="#bffff7;#41fff5;#00c8ff;#bffff7" keyTimes="0;0.3333333333333333;0.6666666666666666;1" dur="5s" repeatCount="indefinite"></animate>
</path><path d="M 97 1 L 127 1 L 127 31 L 97 31 Z" fill="#bffff7">
  <animate attributeName="fill" begin="-0.688614837053364s" values="#bffff7;#41fff5;#00c8ff;#bffff7" keyTimes="0;0.3333333333333333;0.6666666666666666;1" dur="5s" repeatCount="indefinite"></animate>
</path><path d="M 97 33 L 127 33 L 127 63 L 97 63 Z" fill="#bffff7">
  <animate attributeName="fill" begin="-3.0571702888239605s" values="#bffff7;#41fff5;#00c8ff;#bffff7" keyTimes="0;0.3333333333333333;0.6666666666666666;1" dur="5s" repeatCount="indefinite"></animate>
</path><path d="M 97 65 L 127 65 L 127 95 L 97 95 Z" fill="#bffff7">
  <animate attributeName="fill" begin="-2.286996717734798s" values="#bffff7;#41fff5;#00c8ff;#bffff7" keyTimes="0;0.3333333333333333;0.6666666666666666;1" dur="5s" repeatCount="indefinite"></animate>
</path><path d="M 97 97 L 127 97 L 127 127 L 97 127 Z" fill="#bffff7">
  <animate attributeName="fill" begin="-0.4739159016497707s" values="#bffff7;#41fff5;#00c8ff;#bffff7" keyTimes="0;0.3333333333333333;0.6666666666666666;1" dur="5s" repeatCount="indefinite"></animate>
</path><path d="M 97 129 L 127 129 L 127 159 L 97 159 Z" fill="#bffff7">
  <animate attributeName="fill" begin="-1.8785703495570072s" values="#bffff7;#41fff5;#00c8ff;#bffff7" keyTimes="0;0.3333333333333333;0.6666666666666666;1" dur="5s" repeatCount="indefinite"></animate>
</path><path d="M 97 161 L 127 161 L 127 191 L 97 191 Z" fill="#bffff7">
  <animate attributeName="fill" begin="-1.1808081066585652s" values="#bffff7;#41fff5;#00c8ff;#bffff7" keyTimes="0;0.3333333333333333;0.6666666666666666;1" dur="5s" repeatCount="indefinite"></animate>
</path><path d="M 97 193 L 127 193 L 127 223 L 97 223 Z" fill="#bffff7">
  <animate attributeName="fill" begin="-3.263700593397987s" values="#bffff7;#41fff5;#00c8ff;#bffff7" keyTimes="0;0.3333333333333333;0.6666666666666666;1" dur="5s" repeatCount="indefinite"></animate>
</path><path d="M 97 225 L 127 225 L 127 255 L 97 255 Z" fill="#bffff7">
  <animate attributeName="fill" begin="-1.8038545716976773s" values="#bffff7;#41fff5;#00c8ff;#bffff7" keyTimes="0;0.3333333333333333;0.6666666666666666;1" dur="5s" repeatCount="indefinite"></animate>
</path><path d="M 129 1 L 159 1 L 159 31 L 129 31 Z" fill="#bffff7">
  <animate attributeName="fill" begin="-1.8809483085263767s" values="#bffff7;#41fff5;#00c8ff;#bffff7" keyTimes="0;0.3333333333333333;0.6666666666666666;1" dur="5s" repeatCount="indefinite"></animate>
</path><path d="M 129 33 L 159 33 L 159 63 L 129 63 Z" fill="#bffff7">
  <animate attributeName="fill" begin="-3.5250541763982466s" values="#bffff7;#41fff5;#00c8ff;#bffff7" keyTimes="0;0.3333333333333333;0.6666666666666666;1" dur="5s" repeatCount="indefinite"></animate>
</path><path d="M 129 65 L 159 65 L 159 95 L 129 95 Z" fill="#bffff7">
  <animate attributeName="fill" begin="-0.4513697399873551s" values="#bffff7;#41fff5;#00c8ff;#bffff7" keyTimes="0;0.3333333333333333;0.6666666666666666;1" dur="5s" repeatCount="indefinite"></animate>
</path><path d="M 129 97 L 159 97 L 159 127 L 129 127 Z" fill="#bffff7">
  <animate attributeName="fill" begin="-0.8540937510878233s" values="#bffff7;#41fff5;#00c8ff;#bffff7" keyTimes="0;0.3333333333333333;0.6666666666666666;1" dur="5s" repeatCount="indefinite"></animate>
</path><path d="M 129 129 L 159 129 L 159 159 L 129 159 Z" fill="#bffff7">
  <animate attributeName="fill" begin="-1.0911965637240273s" values="#bffff7;#41fff5;#00c8ff;#bffff7" keyTimes="0;0.3333333333333333;0.6666666666666666;1" dur="5s" repeatCount="indefinite"></animate>
</path><path d="M 129 161 L 159 161 L 159 191 L 129 191 Z" fill="#bffff7">
  <animate attributeName="fill" begin="-1.9958540665203295s" values="#bffff7;#41fff5;#00c8ff;#bffff7" keyTimes="0;0.3333333333333333;0.6666666666666666;1" dur="5s" repeatCount="indefinite"></animate>
</path><path d="M 129 193 L 159 193 L 159 223 L 129 223 Z" fill="#bffff7">
  <animate attributeName="fill" begin="-3.180409640125884s" values="#bffff7;#41fff5;#00c8ff;#bffff7" keyTimes="0;0.3333333333333333;0.6666666666666666;1" dur="5s" repeatCount="indefinite"></animate>
</path><path d="M 129 225 L 159 225 L 159 255 L 129 255 Z" fill="#bffff7">
  <animate attributeName="fill" begin="-1.9178269217761112s" values="#bffff7;#41fff5;#00c8ff;#bffff7" keyTimes="0;0.3333333333333333;0.6666666666666666;1" dur="5s" repeatCount="indefinite"></animate>
</path><path d="M 161 1 L 191 1 L 191 31 L 161 31 Z" fill="#bffff7">
  <animate attributeName="fill" begin="-1.2202060190435027s" values="#bffff7;#41fff5;#00c8ff;#bffff7" keyTimes="0;0.3333333333333333;0.6666666666666666;1" dur="5s" repeatCount="indefinite"></animate>
</path><path d="M 161 33 L 191 33 L 191 63 L 161 63 Z" fill="#bffff7">
  <animate attributeName="fill" begin="-1.6237628818907446s" values="#bffff7;#41fff5;#00c8ff;#bffff7" keyTimes="0;0.3333333333333333;0.6666666666666666;1" dur="5s" repeatCount="indefinite"></animate>
</path><path d="M 161 65 L 191 65 L 191 95 L 161 95 Z" fill="#bffff7">
  <animate attributeName="fill" begin="-2.557566723928364s" values="#bffff7;#41fff5;#00c8ff;#bffff7" keyTimes="0;0.3333333333333333;0.6666666666666666;1" dur="5s" repeatCount="indefinite"></animate>
</path><path d="M 161 97 L 191 97 L 191 127 L 161 127 Z" fill="#bffff7">
  <animate attributeName="fill" begin="-4.65235009763395s" values="#bffff7;#41fff5;#00c8ff;#bffff7" keyTimes="0;0.3333333333333333;0.6666666666666666;1" dur="5s" repeatCount="indefinite"></animate>
</path><path d="M 161 129 L 191 129 L 191 159 L 161 159 Z" fill="#bffff7">
  <animate attributeName="fill" begin="-2.8734248873613666s" values="#bffff7;#41fff5;#00c8ff;#bffff7" keyTimes="0;0.3333333333333333;0.6666666666666666;1" dur="5s" repeatCount="indefinite"></animate>
</path><path d="M 161 161 L 191 161 L 191 191 L 161 191 Z" fill="#bffff7">
  <animate attributeName="fill" begin="-3.963358830091662s" values="#bffff7;#41fff5;#00c8ff;#bffff7" keyTimes="0;0.3333333333333333;0.6666666666666666;1" dur="5s" repeatCount="indefinite"></animate>
</path><path d="M 161 193 L 191 193 L 191 223 L 161 223 Z" fill="#bffff7">
  <animate attributeName="fill" begin="-3.6803173404456246s" values="#bffff7;#41fff5;#00c8ff;#bffff7" keyTimes="0;0.3333333333333333;0.6666666666666666;1" dur="5s" repeatCount="indefinite"></animate>
</path><path d="M 161 225 L 191 225 L 191 255 L 161 255 Z" fill="#bffff7">
  <animate attributeName="fill" begin="-1.807198026266249s" values="#bffff7;#41fff5;#00c8ff;#bffff7" keyTimes="0;0.3333333333333333;0.6666666666666666;1" dur="5s" repeatCount="indefinite"></animate>
</path><path d="M 193 1 L 223 1 L 223 31 L 193 31 Z" fill="#bffff7">
  <animate attributeName="fill" begin="-2.0132336206212265s" values="#bffff7;#41fff5;#00c8ff;#bffff7" keyTimes="0;0.3333333333333333;0.6666666666666666;1" dur="5s" repeatCount="indefinite"></animate>
</path><path d="M 193 33 L 223 33 L 223 63 L 193 63 Z" fill="#bffff7">
  <animate attributeName="fill" begin="-2.3096873188205813s" values="#bffff7;#41fff5;#00c8ff;#bffff7" keyTimes="0;0.3333333333333333;0.6666666666666666;1" dur="5s" repeatCount="indefinite"></animate>
</path><path d="M 193 65 L 223 65 L 223 95 L 193 95 Z" fill="#bffff7">
  <animate attributeName="fill" begin="-1.9635680081658713s" values="#bffff7;#41fff5;#00c8ff;#bffff7" keyTimes="0;0.3333333333333333;0.6666666666666666;1" dur="5s" repeatCount="indefinite"></animate>
</path><path d="M 193 97 L 223 97 L 223 127 L 193 127 Z" fill="#bffff7">
  <animate attributeName="fill" begin="-3.892556926056323s" values="#bffff7;#41fff5;#00c8ff;#bffff7" keyTimes="0;0.3333333333333333;0.6666666666666666;1" dur="5s" repeatCount="indefinite"></animate>
</path><path d="M 193 129 L 223 129 L 223 159 L 193 159 Z" fill="#bffff7">
  <animate attributeName="fill" begin="-2.0481585224630905s" values="#bffff7;#41fff5;#00c8ff;#bffff7" keyTimes="0;0.3333333333333333;0.6666666666666666;1" dur="5s" repeatCount="indefinite"></animate>
</path><path d="M 193 161 L 223 161 L 223 191 L 193 191 Z" fill="#bffff7">
  <animate attributeName="fill" begin="-2.615226010011885s" values="#bffff7;#41fff5;#00c8ff;#bffff7" keyTimes="0;0.3333333333333333;0.6666666666666666;1" dur="5s" repeatCount="indefinite"></animate>
</path><path d="M 193 193 L 223 193 L 223 223 L 193 223 Z" fill="#bffff7">
  <animate attributeName="fill" begin="-2.009322968908492s" values="#bffff7;#41fff5;#00c8ff;#bffff7" keyTimes="0;0.3333333333333333;0.6666666666666666;1" dur="5s" repeatCount="indefinite"></animate>
</path><path d="M 193 225 L 223 225 L 223 255 L 193 255 Z" fill="#bffff7">
  <animate attributeName="fill" begin="-3.7842924212586335s" values="#bffff7;#41fff5;#00c8ff;#bffff7" keyTimes="0;0.3333333333333333;0.6666666666666666;1" dur="5s" repeatCount="indefinite"></animate>
</path><path d="M 225 1 L 255 1 L 255 31 L 225 31 Z" fill="#bffff7">
  <animate attributeName="fill" begin="-0.5520920751339553s" values="#bffff7;#41fff5;#00c8ff;#bffff7" keyTimes="0;0.3333333333333333;0.6666666666666666;1" dur="5s" repeatCount="indefinite"></animate>
</path><path d="M 225 33 L 255 33 L 255 63 L 225 63 Z" fill="#bffff7">
  <animate attributeName="fill" begin="-1.3656047307449293s" values="#bffff7;#41fff5;#00c8ff;#bffff7" keyTimes="0;0.3333333333333333;0.6666666666666666;1" dur="5s" repeatCount="indefinite"></animate>
</path><path d="M 225 65 L 255 65 L 255 95 L 225 95 Z" fill="#bffff7">
  <animate attributeName="fill" begin="-0.09603879710770147s" values="#bffff7;#41fff5;#00c8ff;#bffff7" keyTimes="0;0.3333333333333333;0.6666666666666666;1" dur="5s" repeatCount="indefinite"></animate>
</path><path d="M 225 97 L 255 97 L 255 127 L 225 127 Z" fill="#bffff7">
  <animate attributeName="fill" begin="-4.7000704371515045s" values="#bffff7;#41fff5;#00c8ff;#bffff7" keyTimes="0;0.3333333333333333;0.6666666666666666;1" dur="5s" repeatCount="indefinite"></animate>
</path><path d="M 225 129 L 255 129 L 255 159 L 225 159 Z" fill="#bffff7">
  <animate attributeName="fill" begin="-0.7783852973445837s" values="#bffff7;#41fff5;#00c8ff;#bffff7" keyTimes="0;0.3333333333333333;0.6666666666666666;1" dur="5s" repeatCount="indefinite"></animate>
</path><path d="M 225 161 L 255 161 L 255 191 L 225 191 Z" fill="#bffff7">
  <animate attributeName="fill" begin="-0.4762368256067939s" values="#bffff7;#41fff5;#00c8ff;#bffff7" keyTimes="0;0.3333333333333333;0.6666666666666666;1" dur="5s" repeatCount="indefinite"></animate>
</path><path d="M 225 193 L 255 193 L 255 223 L 225 223 Z" fill="#bffff7">
  <animate attributeName="fill" begin="-4.81699394317731s" values="#bffff7;#41fff5;#00c8ff;#bffff7" keyTimes="0;0.3333333333333333;0.6666666666666666;1" dur="5s" repeatCount="indefinite"></animate>
</path><path d="M 225 225 L 255 225 L 255 255 L 225 255 Z" fill="#bffff7">
  <animate attributeName="fill" begin="-4.157112972125359s" values="#bffff7;#41fff5;#00c8ff;#bffff7" keyTimes="0;0.3333333333333333;0.6666666666666666;1" dur="5s" repeatCount="indefinite"></animate>
</path></g>
  </pattern>
</defs>
<rect x="0" y="0" width="1084" height="322" fill="url(#pid-0.3773903589785743)"></rect>
</svg>