<svg height="512pt" viewBox="0 0 512 512.00134" width="512pt" xmlns="http://www.w3.org/2000/svg"><path d="m179.117188 311.671875 21.210937 21.210937-40.519531 40.519532-21.210938-21.210938zm0 0" fill="#a8d3d8"/><path d="m200.328125 332.886719-40.515625 40.515625-10.605469-10.601563 40.515625-40.519531zm0 0" fill="#8ebac5"/><path d="m63.632812 512-63.632812-63.632812 127.992188-127.992188 63.632812 63.632812zm0 0" fill="#3e5959"/><path d="m191.628906 384.011719-127.992187 127.988281-31.816407-31.816406 127.992188-127.988282zm0 0" fill="#293939"/><path d="m317 390c-107.519531 0-195-87.480469-195-195s87.480469-195 195-195 195 87.480469 195 195-87.480469 195-195 195zm0 0" fill="#3e5959"/><path d="m317 390c107.519531 0 195-87.480469 195-195 0-53.761719-21.871094-102.511719-57.179688-137.820312l-275.640624 275.640624c35.3125 35.308594 84.0625 57.179688 137.820312 57.179688zm0 0" fill="#384949"/><path d="m317 30c-90.980469 0-165 74.019531-165 165s74.019531 165 165 165 165-74.019531 165-165-74.019531-165-165-165zm0 0" fill="#deecf1"/><path d="m317 360c90.980469 0 165-74.019531 165-165 0-45.492188-18.503906-86.742188-48.382812-116.617188l-233.234376 233.234376c29.875 29.878906 71.125 48.382812 116.617188 48.382812zm0 0" fill="#c6e2e7"/><path d="m422 85.800781v139.199219h-30v-100.800781l-5.699219 1.5-84.300781 21v108.300781h-30v-131.699219zm0 0" fill="#25d9f8"/><g fill="#00c0f1"><path d="m272 240 30-30v45h-30zm0 0"/><path d="m422 90v135h-30v-100.800781l-5.699219 1.5zm0 0"/><path d="m377 270c-24.8125 0-45-20.1875-45-45s20.1875-45 45-45c24.816406 0 45 20.1875 45 45s-20.183594 45-45 45zm0 0"/></g><path d="m288.800781 223.199219c-8.101562-8.101563-19.199219-13.199219-31.800781-13.199219-24.898438 0-45 20.097656-45 45 0 12.597656 5.101562 23.699219 13.199219 31.800781 8.101562 8.097657 19.203125 13.199219 31.800781 13.199219 24.902344 0 45-20.101562 45-45 0-12.601562-5.097656-23.699219-13.199219-31.800781zm0 0" fill="#25d9f8"/><path d="m302 255c0 24.898438-20.097656 45-45 45-12.597656 0-23.699219-5.101562-31.800781-13.199219l63.601562-63.601562c8.101563 8.101562 13.199219 19.199219 13.199219 31.800781zm0 0" fill="#00c0f1"/></svg>